<svg width="500" height="500" viewBox="0 0 500 500" fill="none" xmlns="http://www.w3.org/2000/svg">
<circle cx="250" cy="250" r="250" fill="#C4C4C4" fill-opacity="0.2"/>
<path d="M272.448 109.589C272.448 97.3229 262.505 87.3802 250.24 87.3802C237.974 87.3802 228.031 97.3229 228.031 109.589C228.031 121.854 237.974 131.792 250.24 131.792C262.505 131.792 272.448 121.854 272.448 109.589Z" fill="#FFA500"/>
<path d="M228.031 250.24C228.031 262.505 237.974 272.448 250.24 272.448C262.505 272.448 272.448 262.505 272.448 250.24C272.448 237.974 262.505 228.031 250.24 228.031C237.974 228.031 228.031 237.974 228.031 250.24Z" fill="#F57C00"/>
<path d="M373.484 86.25C373.339 86.2032 373.198 86.1563 373.052 86.1042C350.807 78.4844 326.411 80.3385 305.755 91.5833L292.542 98.7812C293.422 102.234 293.891 105.854 293.891 109.589C293.891 130.323 279.432 147.672 260.052 152.135C257.911 157.661 256.797 163.609 256.797 169.651V183.922C256.797 192.396 258.651 200.734 262.219 208.25C280.5 213.464 293.891 230.281 293.891 250.24C293.891 250.437 293.88 250.641 293.875 250.839C299.552 256.62 306.099 261.552 313.281 265.464L332.057 275.688C336.583 278.151 341.526 279.609 346.521 280.047C355.245 267.833 369.531 259.865 385.688 259.865C401.792 259.865 416.042 267.786 424.776 279.938C429.354 279.375 433.859 277.953 438.016 275.688L456.792 265.464C457.896 264.865 458.974 264.234 460.047 263.589C460.323 259.172 460.479 254.724 460.479 250.24C460.479 193.036 437.635 141.167 400.568 103.26C393.016 95.5417 383.745 89.6146 373.484 86.25" fill="#FFA501"/>
<path d="M440.568 289.203L431.734 294.005C433.078 298.432 433.807 303.12 433.807 307.979C433.807 332.057 416.125 352 393.042 355.542C392.099 359.349 391.604 363.286 391.604 367.266V381.536C391.604 388.672 392.932 395.708 395.479 402.245C428.281 370.891 450.953 329.031 458.083 282.068C452.042 283.781 446.156 286.156 440.568 289.203" fill="#F57C00"/>
<path d="M407.922 307.979C407.922 295.714 397.979 285.771 385.714 285.771C373.448 285.771 363.5 295.714 363.5 307.979C363.5 320.25 373.448 330.193 385.714 330.193C397.979 330.193 407.922 320.25 407.922 307.979Z" fill="#F57C00"/>
<path d="M360.958 422.219C372.016 411.578 378.469 397.042 378.469 381.698V367.266C378.469 363.203 377.953 359.177 376.974 355.297C354.562 351.198 337.568 331.578 337.568 307.979C337.568 303.344 338.24 298.865 339.464 294.62L329.505 289.203C315.161 281.391 298.917 277.854 282.938 279.156C274.932 288.203 263.245 293.917 250.214 293.917C237.187 293.917 225.495 288.203 217.49 279.151C201.531 277.859 185.302 281.401 170.974 289.203L160.333 294.995C161.49 299.125 162.12 303.479 162.12 307.979C162.12 331.292 145.547 350.724 123.542 355.151C122.536 359.078 122.01 363.151 122.01 367.266V381.536C122.01 396.979 128.542 411.562 139.62 422.318C140.5 423.172 141.333 424.068 142.12 425.01C148.776 433.01 157.396 439.193 166.948 443.323C192.49 454.359 220.646 460.479 250.24 460.479C279.307 460.479 306.995 454.573 332.177 443.901C342.214 439.646 351.385 433.38 358.365 425.005C359.177 424.031 360.047 423.099 360.958 422.219Z" fill="#F57C00"/>
<path d="M135.495 307.979C135.495 295.714 125.552 285.771 113.286 285.771C101.021 285.771 91.0781 295.714 91.0781 307.979C91.0781 320.25 101.021 330.193 113.286 330.193C125.552 330.193 135.495 320.25 135.495 307.979Z" fill="#F57C00"/>
<path d="M178.469 67.849L197.25 78.0729C203.042 81.2292 209.516 82.7448 215.922 82.5573C223.922 72.4219 236.302 65.9115 250.214 65.9115C264.125 65.9115 276.51 72.4219 284.51 82.5573C290.922 82.75 297.401 81.2292 303.203 78.0729L321.984 67.849C326.99 65.1198 331.698 61.901 336.01 58.2448C309.818 46.526 280.792 40 250.24 40C219.682 40 190.651 46.526 164.453 58.25C168.766 61.9063 173.464 65.125 178.469 67.849Z" fill="#FFA500"/>
<path d="M108.875 367.266C108.875 363.323 108.385 359.422 107.464 355.646C83.9844 352.453 65.8854 332.333 65.8854 307.979C65.8854 302.984 66.6458 298.167 68.0625 293.635L59.9115 289.203C54.3229 286.156 48.4375 283.781 42.3958 282.068C49.526 329.016 72.1823 370.859 104.964 402.208C107.516 395.74 108.875 388.786 108.875 381.698V367.266" fill="#F57C00"/>
<path d="M43.6875 265.464L62.4635 275.688C66.401 277.833 70.6615 279.214 74.9896 279.828C83.7292 267.74 97.9427 259.865 114.005 259.865C130.193 259.865 144.5 267.865 153.219 280.115C158.469 279.76 163.672 278.271 168.422 275.688L187.198 265.464C194.359 261.563 200.891 256.651 206.557 250.885C206.552 250.667 206.542 250.453 206.542 250.24C206.542 230.302 219.901 213.5 238.156 208.266C241.745 200.797 243.656 192.531 243.656 184.083V169.651C243.656 163.615 242.542 157.667 240.401 152.141C221.01 147.687 206.542 130.333 206.542 109.589C206.542 105.854 207.01 102.229 207.891 98.7708L194.698 91.5833C174.031 80.3333 149.63 78.5156 127.365 86.1146C127.234 86.1615 127.109 86.2031 126.979 86.2448C116.729 89.6094 107.469 95.5365 99.9271 103.25C62.8542 141.156 40 193.026 40 250.24C40 254.724 40.1563 259.172 40.4323 263.589C41.5052 264.234 42.5833 264.865 43.6875 265.464Z" fill="#FFA500"/>
</svg>
